# xmcd CD database file
#
# Track frame offsets:
#	150
#	8678
#	37650
#	67573
#	88140
#	127258
#	162978
#	188488
#	206925
#	231753
#	253670
#
# Disc length: 3768 seconds
#
# Revision: 0
# Processed by: cddbd v1.5.1PL0 Copyright (c) Steve Scherf et al.
# Submitted via: CDex 1.51
#
DISCID=880eb60b
DTITLE=矢野沙織 - SAKURA STAMP
DYEAR=2005
DGENRE=Jazz
TTITLE0=Donna Lee (Charlie Parker)
TTITLE1=Sweet Love Of Mine (Woody Show)
TTITLE2=Sakura Stamp (Saori Yano)
TTITLE3=Shawnuff (Dizzy Gillespie and Charlie Parker)
TTITLE4=Red House (Jimi Hendrix)
TTITLE5=Crazy He Calls Me (Carl Sigmon and Bob Russell)
TTITLE6=けむりの瞳 (Saori Yano)
TTITLE7=Salt Peanuts (Dizzy Gillespie and Kenny Clark)
TTITLE8=Tico Tico (Zequinha Abreu)
TTITLE9=Sk8 Game (Saori Yano)
TTITLE10=砂とスカート (Alexis Puentes,Saori Yano)
EXTD=YEAR: 2005
EXTT0=
EXTT1=
EXTT2=
EXTT3=
EXTT4=
EXTT5=
EXTT6=
EXTT7=
EXTT8=
EXTT9=
EXTT10=
PLAYORDER=
